<?xml version="1.0" standalone="no"?>
<!DOCTYPE svg PUBLIC "-//W3C//DTD SVG 20010904//EN"
 "http://www.w3.org/TR/2001/REC-SVG-20010904/DTD/svg10.dtd">
<svg version="1.0" xmlns="http://www.w3.org/2000/svg"
 width="174.000000pt" height="174.000000pt" viewBox="0 0 174.000000 174.000000"
 preserveAspectRatio="xMidYMid meet">

<g transform="translate(0.000000,174.000000) scale(0.100000,-0.100000)"
fill="#000000" stroke="none">
<path d="M440 1390 c8 -5 24 -10 34 -10 26 0 18 6 -19 14 -22 5 -26 4 -15 -4z"/>
<path d="M416 1362 c-9 -27 12 -170 28 -193 9 -13 12 -35 9 -62 -5 -39 -4 -41
10 -22 8 10 12 25 9 33 -4 11 1 13 19 7 18 -5 21 -4 9 4 -8 6 -11 11 -6 11 5
0 3 6 -3 13 -6 8 -8 17 -4 20 3 4 -1 7 -11 7 -9 0 -15 4 -12 9 3 5 -1 14 -9
21 -9 8 -12 22 -8 41 3 17 1 29 -5 29 -11 0 -11 58 0 76 8 12 1 24 -13 24 -4
0 -10 -8 -13 -18z"/>
<path d="M1358 1313 c-2 -10 -1 -29 2 -43 6 -21 7 -18 11 18 4 41 -5 59 -13
25z"/>
<path d="M590 1290 c0 -6 7 -10 15 -10 8 0 15 2 15 4 0 2 -7 6 -15 10 -8 3
-15 1 -15 -4z"/>
<path d="M1157 1258 c-15 -26 -15 -29 -2 -18 20 16 39 50 28 50 -4 0 -16 -14
-26 -32z"/>
<path d="M620 1266 c0 -2 7 -7 16 -10 8 -3 12 -2 9 4 -6 10 -25 14 -25 6z"/>
<path d="M570 1240 c0 -6 7 -10 15 -10 8 0 15 2 15 4 0 2 -7 6 -15 10 -8 3
-15 1 -15 -4z"/>
<path d="M621 1234 c13 -16 29 -19 29 -5 0 5 -9 11 -21 14 -16 4 -18 3 -8 -9z"/>
<path d="M990 1236 c0 -9 -7 -24 -15 -32 -20 -20 -19 -34 5 -64 16 -20 20 -22
20 -7 0 9 -5 17 -11 17 -5 0 -7 5 -4 10 3 6 1 10 -4 10 -6 0 -11 5 -11 10 0 6
8 10 18 8 20 -4 30 38 13 55 -8 8 -11 6 -11 -7z"/>
<path d="M770 1225 c0 -8 9 -20 19 -27 18 -11 18 -14 5 -40 -10 -19 -19 -25
-31 -21 -12 5 -15 2 -10 -10 4 -10 3 -27 -1 -40 -5 -12 -7 -30 -4 -39 4 -20
24 -25 21 -5 -3 21 13 77 22 77 5 0 9 7 9 15 0 8 6 12 13 10 8 -4 12 7 12 33
1 33 -2 38 -17 34 -12 -3 -18 1 -18 12 0 9 -4 16 -10 16 -5 0 -10 -7 -10 -15z"/>
<path d="M595 1210 c-3 -6 1 -7 9 -4 18 7 21 14 7 14 -6 0 -13 -4 -16 -10z"/>
<path d="M921 1198 c0 -12 3 -17 6 -10 2 6 9 9 15 6 6 -4 9 -1 6 6 -8 24 -28
23 -27 -2z"/>
<path d="M1085 1201 c-3 -6 3 -9 14 -8 11 0 17 5 15 9 -7 11 -22 10 -29 -1z"/>
<path d="M662 1180 c-27 -22 -27 -25 -3 -27 13 -1 18 3 15 12 -4 10 0 12 15 8
12 -3 21 -1 21 5 0 19 -26 20 -48 2z"/>
<path d="M1120 1170 c0 -5 7 -10 15 -10 8 0 15 5 15 10 0 6 -7 10 -15 10 -8 0
-15 -4 -15 -10z"/>
<path d="M1315 1169 c-4 -6 -5 -12 -2 -15 2 -3 7 2 10 11 7 17 1 20 -8 4z"/>
<path d="M570 1150 c0 -6 7 -10 15 -10 8 0 15 2 15 4 0 2 -7 6 -15 10 -8 3
-15 1 -15 -4z"/>
<path d="M870 1148 c0 -4 7 -8 15 -8 8 0 15 4 15 8 0 5 -7 9 -15 9 -8 0 -15
-4 -15 -9z"/>
<path d="M915 1149 c-4 -6 -5 -12 -2 -15 2 -3 7 2 10 11 7 17 1 20 -8 4z"/>
<path d="M701 1131 c-14 -4 -26 -13 -29 -21 -3 -12 -2 -12 6 -1 6 8 18 11 31
6 15 -5 21 -2 21 9 0 9 -1 16 -2 15 -2 -1 -14 -4 -27 -8z"/>
<path d="M943 1105 c0 -22 2 -30 4 -17 2 12 2 30 0 40 -3 9 -5 -1 -4 -23z"/>
<path d="M1005 1119 c-4 -11 -2 -26 4 -32 6 -6 11 -25 12 -41 0 -28 1 -29 9
-9 10 24 2 90 -11 98 -4 3 -11 -4 -14 -16z"/>
<path d="M625 1120 c-3 -5 -1 -10 4 -10 6 0 11 5 11 10 0 6 -2 10 -4 10 -3 0
-8 -4 -11 -10z"/>
<path d="M842 1100 c0 -19 2 -27 5 -17 2 9 2 25 0 35 -3 9 -5 1 -5 -18z"/>
<path d="M896 1105 c-3 -9 -6 -22 -5 -28 0 -7 5 -1 10 12 5 13 8 26 5 28 -2 2
-6 -3 -10 -12z"/>
<path d="M1195 1110 c-3 -5 -1 -10 4 -10 6 0 11 5 11 10 0 6 -2 10 -4 10 -3 0
-8 -4 -11 -10z"/>
<path d="M1290 1099 c0 -5 5 -7 10 -4 6 3 10 8 10 11 0 2 -4 4 -10 4 -5 0 -10
-5 -10 -11z"/>
<path d="M504 1085 c21 -16 32 -13 21 4 -3 6 -14 11 -23 11 -15 -1 -15 -2 2
-15z"/>
<path d="M658 1073 c7 -3 16 -2 19 1 4 3 -2 6 -13 5 -11 0 -14 -3 -6 -6z"/>
<path d="M1205 1070 c3 -5 8 -10 11 -10 2 0 4 5 4 10 0 6 -5 10 -11 10 -5 0
-7 -4 -4 -10z"/>
<path d="M490 1060 c0 -5 5 -10 11 -10 5 0 7 5 4 10 -3 6 -8 10 -11 10 -2 0
-4 -4 -4 -10z"/>
<path d="M675 1012 c-11 -2 -31 -15 -45 -28 -21 -19 -25 -31 -22 -59 5 -43 46
-80 77 -70 11 4 28 7 37 8 9 1 15 4 13 8 -3 3 5 15 18 25 12 10 16 12 10 4
-17 -19 -16 -29 2 -26 23 3 24 9 14 56 -15 67 -47 93 -104 82z m15 -36 c0 -20
-17 -29 -26 -15 -4 8 -9 7 -15 -2 -16 -26 -9 -57 17 -78 15 -12 22 -21 15 -21
-20 0 -51 40 -51 67 0 29 25 63 47 63 7 0 13 -6 13 -14z"/>
<path d="M1047 1000 c-20 -16 -47 -77 -47 -107 0 -26 129 -43 157 -21 7 6 17
26 23 46 9 32 7 38 -20 64 -17 15 -35 28 -42 29 -7 0 -21 2 -30 4 -10 2 -28
-5 -41 -15z m97 -29 c10 -11 16 -26 13 -33 -4 -8 -6 -6 -6 5 -1 10 -7 17 -13
16 -27 -3 -38 2 -38 16 0 21 24 19 44 -4z m6 -80 c-6 -12 -15 -21 -21 -21 -5
0 -2 11 8 24 21 28 29 27 13 -3z"/>
<path d="M1275 888 c2 -30 46 -88 67 -88 13 0 9 12 -9 27 -10 8 -13 12 -8 10
6 -3 16 1 23 9 13 15 9 18 -21 15 -10 -2 -21 8 -26 22 -15 38 -29 41 -26 5z"/>
<path d="M476 855 c-10 -7 -15 -18 -11 -24 3 -6 1 -11 -4 -11 -6 0 -11 -10
-10 -22 0 -13 3 -17 6 -10 2 6 11 12 19 12 9 0 13 4 9 9 -3 5 3 16 12 23 22
16 28 38 11 38 -7 0 -21 -7 -32 -15z"/>
<path d="M551 819 c5 -11 14 -17 20 -14 15 10 10 22 -11 28 -17 4 -18 2 -9
-14z"/>
<path d="M797 833 c-4 -3 -7 -11 -7 -17 0 -6 5 -5 12 2 6 6 9 14 7 17 -3 3 -9
2 -12 -2z"/>
<path d="M810 795 c-10 -12 -4 -22 34 -56 30 -27 46 -50 46 -66 0 -12 -4 -23
-10 -23 -5 0 -10 -7 -10 -15 0 -8 -4 -16 -10 -16 -20 -3 -25 -4 -38 -12 -25
-17 0 -27 29 -12 16 9 29 11 29 6 0 -9 48 -1 51 9 1 3 -7 21 -16 41 -16 34
-16 38 0 62 9 14 30 32 46 39 34 15 38 29 7 24 -13 -1 -28 4 -35 13 -7 9 -13
11 -13 6 0 -6 -17 -10 -37 -9 -21 1 -44 -3 -50 -9 -9 -6 -13 -6 -13 2 0 6 5
11 10 11 6 0 10 5 10 10 0 15 -16 12 -30 -5z"/>
<path d="M541 775 c14 -15 40 -20 82 -16 21 1 23 28 2 28 -8 0 -15 -4 -15 -9
0 -11 -48 -10 -55 2 -3 6 -11 10 -18 10 -7 0 -5 -6 4 -15z"/>
<path d="M1130 782 c0 -6 8 -13 18 -15 12 -3 10 -5 -7 -6 -24 -1 -24 -1 -5
-16 10 -8 26 -14 34 -14 10 0 8 3 -5 8 -18 8 -16 10 15 24 31 14 32 15 10 15
-14 0 -33 3 -42 7 -11 4 -18 3 -18 -3z"/>
<path d="M605 742 c-9 -7 -35 -16 -112 -38 -22 -6 -14 -24 10 -24 18 0 19 -2
7 -10 -11 -7 -11 -10 -2 -10 19 0 95 41 88 48 -4 3 11 14 31 23 34 17 35 18
13 19 -15 0 -30 -4 -35 -8z"/>
<path d="M715 730 c3 -5 8 -10 11 -10 2 0 4 5 4 10 0 6 -5 10 -11 10 -5 0 -7
-4 -4 -10z"/>
<path d="M1070 722 c0 -6 9 -12 20 -15 11 -3 20 -3 20 -1 0 2 -9 8 -20 14 -11
6 -20 7 -20 2z"/>
<path d="M1204 715 c11 -8 28 -15 37 -15 10 0 21 -4 24 -10 3 -5 15 -10 26
-10 32 0 17 25 -17 28 -16 2 -33 8 -38 13 -6 5 -19 9 -30 9 -21 -1 -21 -1 -2
-15z"/>
<path d="M550 650 c0 -5 7 -7 15 -4 8 4 15 8 15 10 0 2 -7 4 -15 4 -8 0 -15
-4 -15 -10z"/>
<path d="M720 640 c0 -5 7 -7 15 -4 8 4 15 8 15 10 0 2 -7 4 -15 4 -8 0 -15
-4 -15 -10z"/>
<path d="M612 611 c-11 -6 -9 -9 5 -13 12 -3 20 0 20 8 0 16 -6 17 -25 5z"/>
<path d="M651 591 c-8 -5 -19 -7 -26 -5 -6 3 -12 -1 -12 -9 0 -9 10 -12 30 -9
26 4 29 2 23 -14 -7 -18 -6 -18 11 -1 15 15 15 19 3 32 -10 9 -20 11 -29 6z"/>
<path d="M705 540 c3 -5 8 -10 11 -10 2 0 4 5 4 10 0 6 -5 10 -11 10 -5 0 -7
-4 -4 -10z"/>
<path d="M617 523 c-4 -3 -7 -13 -7 -22 1 -13 3 -13 11 2 11 19 8 33 -4 20z"/>
<path d="M752 505 c0 -16 2 -22 5 -12 2 9 2 23 0 30 -3 6 -5 -1 -5 -18z"/>
<path d="M645 509 c-4 -6 -5 -12 -2 -15 2 -3 7 2 10 11 7 17 1 20 -8 4z"/>
<path d="M685 497 c-13 -13 -16 -21 -8 -24 15 -5 5 -33 -12 -33 -13 0 -25 -21
-25 -46 0 -7 6 -12 13 -10 6 1 9 1 5 -1 -5 -3 -8 -12 -8 -21 0 -10 -6 -5 -16
13 -8 16 -16 31 -18 32 -7 7 1 -63 8 -80 5 -10 6 -21 2 -24 -3 -4 -6 2 -6 12
0 12 -3 15 -9 9 -6 -5 -7 -29 -4 -52 6 -42 7 -44 34 -38 16 3 29 2 29 -3 0
-17 -28 -31 -46 -25 -16 6 -16 4 4 -15 12 -12 22 -26 22 -32 0 -6 5 -7 10 -4
6 3 10 11 10 16 0 6 -5 7 -12 3 -12 -8 -10 -1 14 48 7 16 19 28 26 28 10 0 12
9 8 33 -5 29 -5 30 6 10 14 -28 24 -29 63 -3 19 12 24 20 14 20 -15 0 -49 81
-49 116 0 7 -4 16 -10 19 -6 4 -7 -1 -3 -11 4 -12 3 -15 -5 -10 -7 4 -13 1
-13 -6 -7 -84 -19 -104 -19 -32 0 27 5 66 11 87 13 47 10 51 -16 24z"/>
<path d="M777 514 c-4 -4 -7 -13 -7 -21 0 -10 5 -11 19 -4 10 6 21 8 24 5 3
-3 8 -1 12 5 3 6 2 11 -4 11 -5 0 -16 2 -23 5 -8 3 -17 2 -21 -1z"/>
<path d="M578 499 c-2 -7 -15 -14 -28 -16 -31 -5 -38 -12 -20 -23 13 -8 12
-10 -3 -10 -10 0 -15 -4 -12 -10 3 -5 8 -20 10 -32 3 -13 14 -30 26 -39 15
-11 18 -18 10 -23 -6 -4 -11 -12 -11 -19 0 -6 7 -1 16 12 13 18 18 20 26 10 7
-10 8 -8 3 7 -6 22 13 76 24 69 4 -2 7 5 7 15 0 15 -4 17 -19 8 -15 -8 -18 -7
-12 3 6 9 3 11 -8 6 -20 -7 -23 13 -5 31 6 6 9 14 6 17 -3 4 -8 1 -10 -6z"/>
<path d="M720 499 c0 -5 5 -7 10 -4 6 3 10 8 10 11 0 2 -4 4 -10 4 -5 0 -10
-5 -10 -11z"/>
<path d="M967 504 c-8 -8 1 -24 14 -24 5 0 9 7 9 15 0 15 -12 20 -23 9z"/>
<path d="M790 459 c0 -5 5 -7 10 -4 6 3 10 8 10 11 0 2 -4 4 -10 4 -5 0 -10
-5 -10 -11z"/>
<path d="M1200 461 c0 -6 5 -13 10 -16 6 -3 10 1 10 9 0 9 -4 16 -10 16 -5 0
-10 -4 -10 -9z"/>
<path d="M990 445 c-7 -8 -20 -14 -28 -13 -19 4 -35 -67 -21 -94 14 -26 11
-34 -6 -12 -13 17 -14 14 -9 -41 6 -69 14 -86 14 -29 0 38 1 38 13 14 13 -25
46 -34 59 -15 5 6 8 3 8 -7 0 -9 4 -19 9 -22 5 -4 7 4 5 16 -2 13 -2 17 2 11
3 -7 11 -13 19 -13 14 0 25 52 25 120 -1 38 -2 42 -12 25 -11 -21 -53 -65 -62
-65 -2 0 -7 8 -10 18 -3 9 -4 -1 -2 -23 l4 -40 -17 38 c-9 21 -19 36 -22 33
-3 -3 -4 8 -1 24 2 17 9 30 14 30 5 0 6 -6 2 -12 -5 -9 -2 -8 10 1 9 8 15 20
12 26 -3 9 6 12 27 10 18 -1 24 0 15 2 -21 5 -24 19 -5 26 6 3 2 6 -9 6 -12 1
-27 -6 -34 -14z m75 -115 c3 -5 1 -10 -4 -10 -6 0 -11 5 -11 10 0 6 2 10 4 10
3 0 8 -4 11 -10z"/>
<path d="M900 415 c-7 -8 -16 -13 -20 -10 -12 7 -50 -44 -44 -60 4 -10 2 -13
-7 -10 -10 4 -15 -7 -17 -42 -4 -58 -9 -68 -30 -51 -12 10 -14 10 -8 0 10 -17
-3 -54 -16 -46 -7 5 -9 -1 -5 -17 l6 -24 -16 23 c-8 12 -24 22 -34 22 -13 0
-17 5 -12 18 7 18 5 17 -17 -12 -10 -13 -10 -17 -2 -12 18 11 14 -5 -13 -49
-26 -43 -31 -60 -15 -50 6 3 10 1 10 -6 0 -7 8 -5 20 6 15 14 20 15 20 4 0
-11 2 -11 10 1 6 10 10 11 10 3 0 -21 17 -15 25 9 l8 23 4 -22 c2 -13 10 -23
16 -23 26 -1 164 -2 188 -1 23 1 26 4 21 28 -4 23 -6 24 -17 10 -7 -9 -15 -14
-18 -10 -13 12 -7 61 8 73 8 7 15 20 14 29 0 12 -2 12 -8 -3 -7 -19 -8 -19
-29 2 -18 18 -21 19 -25 4 -3 -9 -5 2 -6 26 0 24 2 41 7 39 4 -3 7 15 8 39 1
33 -3 44 -12 40 -11 -4 -11 0 -2 20 11 23 13 24 19 7 6 -14 8 -12 8 10 1 30
-10 35 -29 12z m-75 -174 c-18 -36 -29 -41 -16 -8 5 12 13 31 16 42 4 11 9 15
12 8 2 -6 -3 -25 -12 -42z m-22 -91 c3 -11 1 -23 -4 -26 -5 -3 -9 6 -9 20 0
31 6 34 13 6z m113 11 c-3 -5 -19 -13 -34 -19 -23 -8 -29 -7 -29 5 0 7 5 12
11 10 6 -2 20 -1 31 4 27 10 27 10 21 0z m-196 -23 c0 -5 5 -6 12 -2 7 4 8 3
4 -4 -5 -9 -13 -9 -27 -2 -23 13 -24 17 -4 17 8 0 15 -4 15 -9z m65 -14 c11
-17 12 -25 4 -22 -6 2 -16 14 -20 26 -11 29 -5 28 16 -4z m-105 -4 c0 -5 -5
-10 -11 -10 -5 0 -7 5 -4 10 3 6 8 10 11 10 2 0 4 -4 4 -10z"/>
<path d="M1242 416 c7 -8 15 -12 17 -11 5 6 -10 25 -20 25 -5 0 -4 -6 3 -14z"/>
<path d="M805 409 c-4 -6 -17 -14 -29 -19 -14 -6 -16 -9 -5 -9 9 -1 26 8 39
19 13 11 18 20 12 20 -6 0 -14 -5 -17 -11z"/>
<path d="M1230 390 c0 -7 -8 -10 -20 -7 -17 4 -20 2 -14 -15 5 -17 3 -20 -11
-14 -13 5 -16 2 -11 -10 3 -8 6 -23 7 -32 0 -11 2 -13 6 -4 4 10 8 10 20 0 14
-11 15 -10 9 9 -10 30 11 68 29 53 9 -8 14 -6 19 7 4 10 4 14 0 10 -4 -4 -13
-2 -21 4 -10 9 -13 8 -13 -1z"/>
<path d="M1111 352 c-1 -7 -5 -10 -11 -7 -6 4 -10 -10 -10 -34 0 -22 5 -43 10
-46 15 -9 12 -25 -5 -25 -16 0 -20 -16 -16 -64 2 -18 -1 -26 -8 -21 -7 3 -11
-2 -11 -14 0 -12 -5 -21 -11 -21 -5 0 -9 9 -7 20 2 10 -1 19 -7 19 -5 0 -13
10 -17 23 -5 16 -7 10 -5 -19 1 -23 -1 -39 -5 -37 -5 3 -9 20 -9 37 -1 26 -3
27 -6 8 -3 -13 -2 -38 1 -56 l6 -32 88 2 c99 3 155 12 146 26 -3 5 4 9 15 9
19 0 26 11 22 33 -1 5 3 6 8 3 20 -13 30 57 11 77 -4 5 -15 1 -24 -8 -9 -9
-16 -11 -16 -5 0 6 -4 8 -10 5 -15 -9 -12 -25 4 -25 8 0 18 -4 21 -10 4 -7 -3
-7 -19 0 -14 5 -26 7 -26 4 0 -4 -7 -1 -15 6 -12 10 -15 10 -15 -4 0 -9 5 -16
11 -16 8 0 8 -4 0 -14 -7 -8 -16 -27 -21 -43 -8 -27 -8 -27 -9 10 -1 21 -5 36
-10 33 -5 -3 -12 1 -15 10 -9 24 -7 36 5 28 6 -3 3 6 -7 21 -15 23 -15 28 -3
36 12 7 11 9 -2 9 -9 0 -20 7 -23 16 -4 11 -2 15 8 11 17 -7 40 18 31 33 -3 5
-12 10 -20 10 -7 0 -16 6 -18 13 -4 9 -6 9 -6 -1z m114 -202 c3 -6 -1 -7 -9
-4 -18 7 -21 14 -7 14 6 0 13 -4 16 -10z"/>
<path d="M483 305 c0 -16 24 -20 45 -6 10 6 8 10 -10 14 -33 9 -35 9 -35 -8z"/>
<path d="M1237 299 c7 -7 15 -10 18 -7 3 3 -2 9 -12 12 -14 6 -15 5 -6 -5z"/>
<path d="M1157 280 c3 -11 7 -20 9 -20 2 0 4 9 4 20 0 11 -4 20 -9 20 -5 0 -7
-9 -4 -20z"/>
<path d="M426 278 c16 -28 27 -38 36 -32 5 3 2 14 -8 25 -19 21 -39 26 -28 7z"/>
<path d="M500 276 c0 -2 9 -6 20 -9 11 -3 18 -1 14 4 -5 9 -34 13 -34 5z"/>
<path d="M1316 272 c2 -3 -1 -11 -6 -17 -6 -7 -8 -20 -4 -28 4 -13 9 -14 19
-4 14 14 14 33 -2 46 -5 5 -8 6 -7 3z"/>
<path d="M1230 256 c0 -2 7 -6 15 -10 8 -3 15 -1 15 4 0 6 -7 10 -15 10 -8 0
-15 -2 -15 -4z"/>
<path d="M208 243 c-17 -3 -28 -11 -28 -20 0 -9 3 -14 6 -10 3 3 17 1 31 -4
22 -8 24 -7 19 7 -6 15 -4 15 10 3 16 -13 16 -12 5 9 -6 12 -13 21 -14 21 -1
-1 -14 -4 -29 -6z"/>
<path d="M498 243 c7 -3 16 -2 19 1 4 3 -2 6 -13 5 -11 0 -14 -3 -6 -6z"/>
<path d="M1520 228 c0 -5 -9 -7 -19 -3 -11 3 -22 1 -26 -5 -3 -5 1 -10 9 -10
9 0 16 -6 16 -12 0 -7 5 -5 11 6 9 15 13 16 20 5 7 -11 9 -11 9 -1 0 7 5 10
10 7 6 -3 10 -2 10 3 0 5 -9 12 -20 15 -11 3 -20 1 -20 -5z"/>
<path d="M115 223 c11 -3 24 -10 28 -17 6 -7 7 -6 4 4 -2 8 -14 16 -28 17 -19
1 -20 1 -4 -4z"/>
<path d="M491 221 c-21 -6 -22 -8 -7 -20 11 -10 16 -10 16 -2 0 7 5 9 11 6 7
-5 3 -15 -11 -30 -23 -25 -11 -46 15 -25 12 10 14 7 10 -19 -3 -23 0 -31 12
-31 12 0 14 8 10 35 -5 33 -5 34 16 22 39 -22 48 -34 32 -41 -9 -3 -15 0 -15
9 0 25 -15 17 -18 -9 -1 -19 4 -25 29 -28 25 -4 33 0 45 24 15 30 9 62 -7 37
-7 -11 -9 -10 -9 4 0 10 -5 15 -10 12 -6 -4 -17 -1 -25 5 -11 10 -15 10 -15 1
0 -7 -5 -9 -11 -6 -6 4 -8 14 -4 23 5 12 1 12 -15 -3 -21 -19 -21 -19 -16 8 5
31 0 36 -33 28z"/>
<path d="M1589 228 c0 -2 -2 -12 -4 -23 -3 -18 -2 -18 8 -4 7 9 21 19 32 22
15 3 13 5 -7 6 -16 0 -28 0 -29 -1z"/>
<path d="M294 136 c5 -69 -2 -96 -25 -96 -21 0 -24 6 -33 58 -4 20 -2 31 4 27
14 -9 12 7 -4 27 -12 16 -14 16 -34 -3 -22 -19 -31 -46 -13 -34 11 6 24 -12
28 -38 7 -45 21 -55 60 -46 45 10 68 35 77 84 8 42 -3 61 -39 67 -23 5 -24 3
-21 -46z m39 -57 c-6 -23 -23 -15 -23 11 0 12 5 17 14 14 8 -3 12 -13 9 -25z"/>
<path d="M8 150 c-6 -17 -6 -37 2 -62 14 -49 32 -60 26 -16 -2 19 1 49 8 69
11 32 11 35 -7 35 -11 0 -23 -11 -29 -26z"/>
<path d="M140 170 c0 -5 5 -10 11 -10 5 0 7 5 4 10 -3 6 -8 10 -11 10 -2 0 -4
-4 -4 -10z"/>
<path d="M950 153 c1 -27 1 -27 15 -9 14 19 12 36 -6 36 -5 0 -9 -12 -9 -27z"/>
<path d="M1388 164 c-13 -13 -14 -22 -5 -50 6 -19 14 -34 18 -34 4 0 14 17 23
38 l16 37 -6 -35 c-3 -19 -15 -44 -27 -54 -17 -15 -18 -18 -4 -13 9 4 17 3 17
-2 0 -5 18 -13 40 -19 35 -9 42 -8 50 8 6 10 10 27 10 37 0 10 7 27 15 37 19
25 19 36 1 36 -8 0 -16 5 -18 11 -2 6 -9 0 -16 -15 -6 -14 -8 -26 -3 -26 4 0
3 -18 -2 -40 -8 -28 -17 -40 -29 -40 -20 0 -33 38 -24 73 13 55 -20 86 -56 51z"/>
<path d="M1696 170 c-14 -4 -16 -9 -8 -14 7 -4 12 -29 12 -57 0 -53 16 -66 26
-21 3 15 7 34 9 42 7 27 -18 58 -39 50z"/>
<path d="M107 133 c3 -10 11 -24 17 -32 8 -11 8 -13 -1 -7 -8 4 -13 1 -13 -8
0 -9 4 -16 8 -16 5 0 9 -7 9 -15 0 -9 -6 -14 -14 -11 -7 3 -13 2 -13 -3 0 -13
22 -29 51 -36 21 -5 27 -2 32 15 4 17 3 19 -9 9 -8 -6 -15 -9 -15 -5 -3 12 -6
21 -13 38 -5 10 -5 25 -2 34 3 8 1 24 -4 35 -14 24 -42 26 -33 2z"/>
<path d="M1607 143 c-4 -3 -7 -13 -7 -22 0 -9 -5 -33 -11 -54 -7 -28 -15 -37
-25 -33 -11 4 -14 1 -12 -12 3 -12 12 -16 33 -14 17 2 32 8 33 13 2 5 8 7 13
3 5 -3 9 -1 9 5 0 5 -5 13 -10 16 -6 3 -7 18 -4 32 6 21 4 24 -7 18 -11 -7
-12 -6 -2 7 7 8 10 18 6 21 -3 4 -1 7 6 7 7 0 9 5 6 10 -7 12 -19 13 -28 3z"/>
</g>
</svg>
