<svg width="25" height="23" viewBox="0 0 25 23" fill="none" xmlns="http://www.w3.org/2000/svg">
<path d="M14.1304 20.3462C6.95652 13.601 3.26087 10.1731 3.26087 6.08173C3.26087 2.65385 5.86957 0 9.23913 0C11.087 0 12.9348 0.884615 14.1304 2.32212C15.3261 0.884615 17.1739 0 19.0217 0C22.3913 0 25 2.65385 25 6.08173C25 10.2837 21.3043 13.7115 14.1304 20.3462ZM12.5 21.5625C5.32609 15.0385 1.08696 11.1683 1.08696 5.97115C1.08696 5.75 1.08696 5.52885 1.08696 5.30769C0.434783 6.30288 0 7.51923 0 8.84615C0 13.0481 3.69565 16.476 10.8696 23L12.5 21.5625Z" fill="#EA1F1F"/>
</svg>
